<!DOCTYPE svg PUBLIC "-//W3C//DTD SVG 20010904//EN" "http://www.w3.org/TR/2001/REC-SVG-20010904/DTD/svg10.dtd">
<svg version="1.0" xmlns="http://www.w3.org/2000/svg" width="252px" height="227px" viewBox="0 0 2520 2270" preserveAspectRatio="xMidYMid meet">
<g id="layer101" fill="#443531" stroke="none">
 <path d="M220 1090 l0 -620 163 0 162 0 354 445 c195 245 360 450 366 455 9 8 113 -116 375 -445 l362 -455 164 0 164 0 0 620 0 620 -140 0 -140 0 -2 -423 -3 -424 -340 424 -340 423 -86 0 c-80 0 -87 -2 -111 -27 -14 -16 -164 -201 -333 -413 -169 -212 -313 -390 -319 -397 -8 -9 -11 103 -11 410 l0 422 -142 3 -143 3 0 -621z m238 106 c-2 -306 0 -462 7 -459 6 2 176 211 379 464 l369 460 66 -3 65 -3 338 -420 c186 -231 356 -440 378 -465 l39 -45 0 468 1 467 95 0 95 0 0 -570 0 -570 -132 0 -133 0 -373 470 c-206 259 -377 470 -380 469 -4 0 -174 -210 -377 -467 l-370 -467 -128 -3 -127 -3 0 571 0 570 95 0 96 0 -3 -464z"/>
 </g>

</svg>