<?xml version="1.0" encoding="UTF-8" standalone="no"?>
<svg
   xmlns:dc="http://purl.org/dc/elements/1.1/"
   xmlns:cc="http://creativecommons.org/ns#"
   xmlns:rdf="http://www.w3.org/1999/02/22-rdf-syntax-ns#"
   xmlns:svg="http://www.w3.org/2000/svg"
   xmlns="http://www.w3.org/2000/svg"
   viewBox="0 0 700.91602 111.8204"
   height="111.8204"
   width="700.91602"
   xml:space="preserve"
   id="svg2"
   version="1.1"><metadata
     id="metadata8"><rdf:RDF><cc:Work
         rdf:about=""><dc:format>image/svg+xml</dc:format><dc:type
           rdf:resource="http://purl.org/dc/dcmitype/StillImage" /></cc:Work></rdf:RDF></metadata><defs
     id="defs6"><clipPath
       id="clipPath22"
       clipPathUnits="userSpaceOnUse"><path
         id="path20"
         d="M 0,83.865 H 525.687 V 0 H 0 Z" /></clipPath></defs><g
     transform="matrix(1.3333333,0,0,-1.3333333,0,111.8204)"
     id="g10"><g
       transform="translate(86.2875,83.2023)"
       id="g12"><path
         id="path14"
         style="fill:#231f20;fill-opacity:1;fill-rule:nonzero;stroke:none"
         d="M 0,0 -35.569,-44.719 -71.139,0 h -15.149 v -59.335 h 13.118 v 41.796 l 33.574,-41.796 h 8.388 L 2.37,-17.539 V -59.335 H 15.487 L 15.487,0 Z M 0.759,-1.705 H 13.863 V -57.626 H 3.996 v 44.757 l -35.961,-44.757 h -6.873 l -35.958,44.757 v -44.757 h -9.869 v 55.921 h 12.767 l 36.329,-45.673 z" /></g><g
       id="g16"><g
         clip-path="url(#clipPath22)"
         id="g18"><g
           transform="translate(137.4229,72.0245)"
           id="g24"><path
             id="path26"
             style="fill:#231f20;fill-opacity:1;fill-rule:nonzero;stroke:none"
             d="m 0,0 c -6.855,0 -10.247,-0.822 -12.091,-2.926 -1.536,-1.782 -1.617,-4.353 -1.617,-8.403 v -14.022 c 0,-4.053 0.081,-6.621 1.632,-8.419 1.833,-2.092 5.221,-2.909 12.076,-2.909 h 27.78 c 6.858,0 10.249,0.821 12.095,2.924 1.306,1.501 1.53,3.559 1.53,7.594 v 15.638 c 0,4.036 -0.224,6.095 -1.537,7.6 C 38.029,-0.822 34.638,0 27.78,0 Z M 27.78,-38.388 H 0 c -7.367,0 -11.089,0.975 -13.276,3.467 -1.955,2.267 -2.053,5.112 -2.053,9.57 v 14.022 c 0,4.459 0.098,7.299 2.039,9.553 2.196,2.505 5.923,3.479 13.29,3.479 h 27.78 c 7.369,0 11.095,-0.972 13.284,-3.474 1.678,-1.924 1.963,-4.258 1.963,-8.752 v -15.638 c 0,-4.493 -0.283,-6.824 -1.955,-8.745 -2.197,-2.506 -5.923,-3.482 -13.292,-3.482 M 3.633,10.136 c -11.15,0 -18.098,-0.633 -22.883,-3.956 -5.91,-4.117 -6.708,-11.345 -6.708,-17.877 v -14.535 c 0,-8.549 2.038,-13.613 6.806,-16.93 5.33,-3.659 13.172,-3.945 22.869,-3.945 H 24.15 c 9.755,0 17.633,0.286 22.871,3.946 4.646,3.205 6.717,8.515 6.717,17.222 v 14.901 c 0,8.607 -2.131,14.08 -6.702,17.212 -4.788,3.329 -11.737,3.962 -22.886,3.962 z M 24.15,-48.816 H 3.717 c -9.97,0 -18.053,0.314 -23.763,4.23 -5.284,3.675 -7.537,9.163 -7.537,18.354 v 14.535 c 0,6.983 0.885,14.739 7.44,19.294 5.122,3.566 12.308,4.244 23.776,4.244 H 24.15 c 11.468,0 18.655,-0.678 23.777,-4.244 5.075,-3.472 7.438,-9.396 7.438,-18.635 v -14.901 c 0,-9.343 -2.298,-15.097 -7.449,-18.644 -5.612,-3.919 -13.733,-4.233 -23.766,-4.233" /></g><g
           transform="translate(214.0557,56.9254)"
           id="g28"><path
             id="path30"
             style="fill:#231f20;fill-opacity:1;fill-rule:nonzero;stroke:none"
             d="m 0,0 h 35.829 c 10.837,0 10.837,1.626 10.837,5.971 v 2.567 c 0,4.344 0,5.971 -10.837,5.971 H 0 Z M 35.829,-1.706 H -1.625 v 17.923 h 37.454 c 10.91,0 12.46,-1.637 12.46,-7.679 V 5.971 c 0,-6.041 -1.55,-7.677 -12.46,-7.677 m 12.208,-29.643 h 10.034 v 14.488 c 0,4.415 -1.583,7.657 -4.701,9.643 l -1.285,0.817 1.354,0.683 c 3.72,1.867 5.312,4.841 5.312,9.929 v 6.384 c 0,13.001 -10.046,13.978 -25.372,13.978 h -45.038 v -55.922 h 10.034 v 20.922 h 36.02 c 10.878,0 13.642,-0.764 13.642,-7.75 z m 11.662,-1.706 H 46.412 v 14.878 c 0,5.13 -0.888,6.041 -12.017,6.041 H 0 v -20.919 h -13.285 v 59.332 h 46.664 c 15.294,0 26.992,-1.153 26.992,-15.682 V 4.211 c 0,-5.195 -1.559,-8.584 -5.025,-10.786 2.851,-2.332 4.353,-5.86 4.353,-10.286 z" /></g><g
           transform="translate(283.8701,25.5762)"
           id="g32"><path
             id="path34"
             style="fill:#231f20;fill-opacity:1;fill-rule:nonzero;stroke:none"
             d="M 0,0 H 62.891 V 8.501 H 9.866 v 16.234 h 50.828 v 8.503 H 9.866 v 14.179 h 53.025 v 8.505 L 0,55.922 Z M 64.517,-1.709 H -1.626 V 57.626 H 64.517 V 45.711 H 11.49 V 34.947 H 62.324 V 23.033 H 11.49 V 10.211 h 53.027 z" /></g><g
           transform="translate(420.252,25.5762)"
           id="g36"><path
             id="path38"
             style="fill:#231f20;fill-opacity:1;fill-rule:nonzero;stroke:none"
             d="M 0,0 H 12.801 V 55.922 H 2.764 V 10.053 L -51.065,55.922 H -64.7 V 0 h 10.029 V 46.598 Z M 14.425,-1.709 H -0.576 l -0.229,0.194 -52.24,44.533 V -1.709 h -13.281 v 59.335 h 15.838 L 1.139,13.636 v 43.99 h 13.286 z" /></g><g
           transform="translate(470.3223,72.0245)"
           id="g40"><path
             id="path42"
             style="fill:#231f20;fill-opacity:1;fill-rule:nonzero;stroke:none"
             d="m 0,0 c -6.854,0 -10.248,-0.822 -12.094,-2.929 -1.533,-1.779 -1.609,-4.35 -1.609,-8.4 v -14.022 c 0,-4.053 0.076,-6.625 1.622,-8.419 1.84,-2.092 5.227,-2.909 12.081,-2.909 h 27.78 c 6.859,0 10.245,0.821 12.093,2.924 1.31,1.5 1.528,3.558 1.528,7.594 v 15.638 c 0,4.036 -0.218,6.095 -1.53,7.6 C 38.025,-0.822 34.639,0 27.78,0 Z M 27.78,-38.388 H 0 c -7.367,0 -11.091,0.975 -13.279,3.467 -1.95,2.264 -2.048,5.11 -2.048,9.57 v 14.022 c 0,4.459 0.098,7.302 2.033,9.553 2.203,2.505 5.927,3.479 13.294,3.479 h 27.78 c 7.369,0 11.095,-0.972 13.286,-3.474 1.676,-1.923 1.964,-4.258 1.964,-8.752 v -15.638 c 0,-4.495 -0.288,-6.827 -1.958,-8.745 -2.195,-2.506 -5.923,-3.482 -13.292,-3.482 M 3.635,10.136 c -11.15,0 -18.097,-0.633 -22.884,-3.958 -5.912,-4.115 -6.705,-11.345 -6.705,-17.875 v -14.535 c 0,-8.549 2.034,-13.613 6.804,-16.93 5.327,-3.659 13.171,-3.945 22.868,-3.945 h 20.434 c 9.753,0 17.632,0.286 22.869,3.946 4.648,3.205 6.714,8.515 6.714,17.222 v 14.901 c 0,8.607 -2.13,14.08 -6.701,17.212 -4.783,3.329 -11.732,3.962 -22.882,3.962 z M 24.152,-48.816 H 3.718 c -9.971,0 -18.05,0.314 -23.763,4.23 -5.283,3.675 -7.537,9.163 -7.537,18.354 v 14.535 c 0,6.983 0.883,14.739 7.434,19.294 5.129,3.566 12.315,4.244 23.783,4.244 h 20.517 c 11.462,0 18.654,-0.678 23.775,-4.244 5.073,-3.472 7.437,-9.396 7.437,-18.635 v -14.901 c 0,-9.343 -2.297,-15.097 -7.447,-18.644 -5.609,-3.919 -13.732,-4.233 -23.765,-4.233" /></g><g
           transform="translate(8.2036,4.9053)"
           id="g44"><path
             id="path46"
             style="fill:#040606;fill-opacity:1;fill-rule:nonzero;stroke:none"
             d="M 0,0 -2.51,5.454 -5.013,0 Z M -2.256,6.915 3.131,-4.756 H 2.187 L 0.344,-0.75 h -5.7 l -1.835,-4.006 h -0.947 l 5.386,11.671 z" /></g><g
           transform="translate(20.478,10.9883)"
           id="g48"><path
             id="path50"
             style="fill:#040606;fill-opacity:1;fill-rule:nonzero;stroke:none"
             d="m 0,0 v -4.533 h 1.938 c 0.983,0 1.736,0.198 2.253,0.591 0.522,0.394 0.78,0.955 0.78,1.68 0,0.713 -0.265,1.266 -0.791,1.667 C 3.651,-0.198 2.892,0 1.905,0 Z m -0.899,0.748 h 2.986 c 1.249,0 2.206,-0.269 2.869,-0.807 0.662,-0.539 0.993,-1.269 0.993,-2.184 0,-1.342 -0.739,-2.278 -2.22,-2.824 0.384,-0.18 0.902,-0.771 1.553,-1.766 l 2.635,-4.006 H 6.85 L 4.821,-7.663 C 4.143,-6.598 3.614,-5.939 3.235,-5.675 2.86,-5.41 2.307,-5.28 1.577,-5.28 H 0 v -5.559 h -0.899 z" /></g><g
           transform="translate(45.9043,10.9131)"
           id="g52"><path
             id="path54"
             style="fill:#040606;fill-opacity:1;fill-rule:nonzero;stroke:none"
             d="m 0,0 v -0.976 c -1.412,0.746 -2.796,1.118 -4.153,1.118 -1.443,0 -2.657,-0.489 -3.63,-1.464 -0.972,-0.984 -1.458,-2.203 -1.458,-3.67 0,-1.481 0.489,-2.696 1.468,-3.655 0.98,-0.957 2.229,-1.433 3.745,-1.433 1.269,0 2.65,0.393 4.148,1.183 v -0.929 c -1.382,-0.722 -2.758,-1.087 -4.131,-1.087 -1.775,0 -3.252,0.568 -4.435,1.696 -1.181,1.133 -1.771,2.539 -1.771,4.225 0,1.7 0.603,3.12 1.809,4.258 1.208,1.141 2.643,1.706 4.312,1.706 C -2.781,0.972 -1.418,0.646 0,0" /></g><g
           transform="translate(64.1831,11.7364)"
           id="g56"><path
             id="path58"
             style="fill:#040606;fill-opacity:1;fill-rule:nonzero;stroke:none"
             d="m 0,0 v -11.587 h -0.91 v 5.491 h -7.774 v -5.491 H -9.585 V 0 h 0.901 v -5.349 h 7.774 l 0,5.349 z" /></g><g
           transform="translate(92.4727,11.7364)"
           id="g60"><path
             id="path62"
             style="fill:#040606;fill-opacity:1;fill-rule:nonzero;stroke:none"
             d="M 0,0 V -0.748 H -4.371 V -11.587 H -5.28 V -0.748 H -9.651 V 0 Z" /></g><g
           transform="translate(107.103,11.7364)"
           id="g64"><path
             id="path66"
             style="fill:#040606;fill-opacity:1;fill-rule:nonzero;stroke:none"
             d="m 0,0 v -0.748 h -5.455 v -4.633 h 5.313 v -0.757 h -5.313 v -4.699 h 5.588 v -0.75 H -6.354 V 0 Z" /></g><g
           transform="translate(125.6406,10.9131)"
           id="g68"><path
             id="path70"
             style="fill:#040606;fill-opacity:1;fill-rule:nonzero;stroke:none"
             d="m 0,0 v -0.976 c -1.411,0.746 -2.797,1.118 -4.152,1.118 -1.45,0 -2.657,-0.489 -3.631,-1.464 -0.972,-0.984 -1.459,-2.203 -1.459,-3.67 0,-1.481 0.488,-2.696 1.467,-3.655 0.977,-0.957 2.23,-1.433 3.744,-1.433 1.267,0 2.652,0.393 4.146,1.183 v -0.929 c -1.378,-0.722 -2.755,-1.087 -4.128,-1.087 -1.774,0 -3.253,0.568 -4.433,1.696 -1.181,1.133 -1.774,2.539 -1.774,4.225 0,1.7 0.604,3.12 1.811,4.258 1.206,1.141 2.644,1.706 4.312,1.706 C -2.782,0.972 -1.418,0.646 0,0" /></g><g
           transform="translate(142.6997,11.7364)"
           id="g72"><path
             id="path74"
             style="fill:#040606;fill-opacity:1;fill-rule:nonzero;stroke:none"
             d="M 0,0 V -0.748 H -4.371 V -11.587 H -5.28 V -0.748 H -9.651 V 0 Z" /></g><g
           transform="translate(159.5498,11.7364)"
           id="g76"><path
             id="path78"
             style="fill:#040606;fill-opacity:1;fill-rule:nonzero;stroke:none"
             d="m 0,0 h 0.901 v -6.32 c 0,-1.729 -0.451,-3.064 -1.359,-4.003 -0.905,-0.944 -2.08,-1.413 -3.523,-1.413 -1.43,0 -2.603,0.465 -3.509,1.394 -0.907,0.93 -1.359,2.202 -1.359,3.816 V 0 h 0.906 v -6.493 c 0,-1.385 0.37,-2.462 1.11,-3.245 0.737,-0.776 1.687,-1.165 2.852,-1.165 1.182,0 2.141,0.393 2.878,1.178 C -0.367,-8.938 0,-7.818 0,-6.37 Z" /></g><g
           transform="translate(170.6196,10.9883)"
           id="g80"><path
             id="path82"
             style="fill:#040606;fill-opacity:1;fill-rule:nonzero;stroke:none"
             d="m 0,0 v -4.533 h 1.936 c 0.984,0 1.738,0.198 2.256,0.591 0.52,0.394 0.782,0.955 0.782,1.68 0,0.713 -0.264,1.266 -0.792,1.667 C 3.652,-0.198 2.894,0 1.904,0 Z m -0.9,0.748 h 2.986 c 1.251,0 2.207,-0.269 2.871,-0.807 0.659,-0.539 0.993,-1.269 0.993,-2.184 0,-1.342 -0.742,-2.278 -2.221,-2.824 0.385,-0.18 0.902,-0.771 1.553,-1.766 l 2.634,-4.006 H 6.853 L 4.82,-7.663 C 4.142,-6.598 3.614,-5.939 3.238,-5.675 2.858,-5.41 2.307,-5.28 1.58,-5.28 H 0 v -5.559 h -0.9 z" /></g><g
           transform="translate(192.7187,11.7364)"
           id="g84"><path
             id="path86"
             style="fill:#040606;fill-opacity:1;fill-rule:nonzero;stroke:none"
             d="m 0,0 v -0.748 h -5.455 v -4.633 h 5.314 v -0.757 h -5.314 v -4.699 h 5.588 v -0.75 H -6.356 V 0 Z" /></g><g
           transform="translate(253.6333,12.4083)"
           id="g88"><path
             id="path90"
             style="fill:#040606;fill-opacity:1;fill-rule:nonzero;stroke:none"
             d="m 0,0 h 0.897 v -6.32 c 0,-1.73 -0.45,-3.065 -1.354,-4.004 -0.898,-0.943 -2.065,-1.413 -3.496,-1.413 -1.428,0 -2.591,0.466 -3.492,1.395 -0.904,0.929 -1.354,2.202 -1.354,3.816 V 0 h 0.903 v -6.494 c 0,-1.384 0.368,-2.462 1.102,-3.245 0.731,-0.775 1.679,-1.164 2.841,-1.164 1.169,0 2.124,0.392 2.857,1.177 C -0.366,-8.938 0,-7.818 0,-6.37 Z" /></g><g
           transform="translate(264.6406,11.6592)"
           id="g92"><path
             id="path94"
             style="fill:#040606;fill-opacity:1;fill-rule:nonzero;stroke:none"
             d="m 0,0 v -4.533 h 1.922 c 0.982,0 1.728,0.198 2.244,0.592 0.518,0.394 0.777,0.955 0.777,1.68 0,0.713 -0.264,1.265 -0.789,1.666 C 3.627,-0.198 2.874,0 1.892,0 Z M -0.893,0.749 H 2.07 c 1.25,0 2.194,-0.27 2.856,-0.808 0.653,-0.539 0.987,-1.268 0.987,-2.183 0,-1.343 -0.733,-2.279 -2.206,-2.824 0.383,-0.181 0.895,-0.772 1.543,-1.766 l 2.618,-4.006 H 6.81 L 4.791,-7.662 C 4.117,-6.598 3.592,-5.939 3.217,-5.675 2.84,-5.41 2.291,-5.279 1.564,-5.279 H 0 v -5.559 h -0.893 z" /></g><g
           transform="translate(281.4365,6.2842)"
           id="g96"><path
             id="path98"
             style="fill:#040606;fill-opacity:1;fill-rule:nonzero;stroke:none"
             d="m 0,0 v -4.713 h 2.399 c 0.99,0 1.744,0.213 2.256,0.635 0.517,0.424 0.77,0.993 0.77,1.708 C 5.425,-0.782 4.286,0 2.01,0 Z M 0,5.375 V 0.761 h 1.246 c 2.106,0 3.159,0.762 3.159,2.304 0,1.539 -1.066,2.31 -3.192,2.31 z m -0.896,0.749 h 2.415 c 1.267,0 2.227,-0.264 2.879,-0.798 0.654,-0.53 0.977,-1.264 0.977,-2.193 0,-1.122 -0.557,-1.982 -1.666,-2.58 1.789,-0.39 2.68,-1.368 2.68,-2.94 0,-0.94 -0.351,-1.684 -1.051,-2.242 C 4.639,-5.184 3.692,-5.463 2.499,-5.463 h -3.395 z" /></g><g
           transform="translate(303.4893,5.5762)"
           id="g100"><path
             id="path102"
             style="fill:#040606;fill-opacity:1;fill-rule:nonzero;stroke:none"
             d="M 0,0 -2.503,5.455 -4.988,0 Z M -2.245,6.915 3.113,-4.755 H 2.173 L 0.341,-0.749 H -5.324 L -7.15,-4.755 h -0.941 l 5.359,11.67 z" /></g><g
           transform="translate(325.2197,12.4083)"
           id="g104"><path
             id="path106"
             style="fill:#040606;fill-opacity:1;fill-rule:nonzero;stroke:none"
             d="M 0,0 V -11.587 H -0.736 L -9.543,-1.46 v -10.127 h -0.898 V 0 h 0.757 l 8.788,-10.127 0,10.127 z" /></g><g
           transform="translate(350.458,11.8272)"
           id="g108"><path
             id="path110"
             style="fill:#040606;fill-opacity:1;fill-rule:nonzero;stroke:none"
             d="m 0,0 v -0.987 c -1.006,0.59 -1.873,0.885 -2.593,0.885 -0.699,0 -1.283,-0.21 -1.749,-0.63 -0.466,-0.425 -0.699,-0.952 -0.699,-1.574 0,-0.449 0.14,-0.85 0.413,-1.209 0.276,-0.358 0.858,-0.708 1.732,-1.036 0.88,-0.331 1.523,-0.608 1.927,-0.83 0.403,-0.222 0.746,-0.543 1.029,-0.963 0.28,-0.422 0.424,-0.965 0.424,-1.634 0,-0.892 -0.331,-1.643 -0.98,-2.252 -0.652,-0.622 -1.45,-0.922 -2.386,-0.922 -0.964,0 -1.953,0.335 -2.973,1.009 v 1.051 c 1.124,-0.821 2.096,-1.23 2.919,-1.23 0.684,0 1.266,0.219 1.737,0.666 0.472,0.443 0.709,0.99 0.709,1.639 0,0.492 -0.143,0.931 -0.439,1.33 -0.293,0.395 -0.887,0.763 -1.784,1.106 -0.893,0.347 -1.532,0.622 -1.918,0.834 -0.384,0.208 -0.711,0.509 -0.977,0.895 -0.267,0.393 -0.4,0.894 -0.4,1.507 0,0.85 0.323,1.574 0.973,2.173 0.657,0.6 1.442,0.902 2.356,0.902 C -1.776,0.73 -0.887,0.487 0,0" /></g><g
           transform="translate(365.0596,7.0284)"
           id="g112"><path
             id="path114"
             style="fill:#040606;fill-opacity:1;fill-rule:nonzero;stroke:none"
             d="M 0,0 4.406,5.38 H 5.313 V -6.207 H 4.409 V 4.068 L 0,-1.346 -4.422,4.068 V -6.207 H -5.321 V 5.38 h 0.899 z" /></g><g
           transform="translate(386.1631,12.4083)"
           id="g116"><path
             id="path118"
             style="fill:#040606;fill-opacity:1;fill-rule:nonzero;stroke:none"
             d="m 0,0 v -0.749 h -5.425 v -4.633 h 5.284 v -0.757 h -5.284 v -4.698 H 0.13 v -0.75 H -6.32 V 0 Z" /></g><g
           transform="translate(435.5732,10.9883)"
           id="g120"><path
             id="path122"
             style="fill:#040606;fill-opacity:1;fill-rule:nonzero;stroke:none"
             d="m 0,0 v -10.089 h 3.262 c 1.496,0 2.739,0.46 3.738,1.38 0.996,0.921 1.496,2.141 1.496,3.66 0,1.486 -0.492,2.701 -1.472,3.641 C 6.037,-0.469 4.767,0 3.204,0 Z m -0.896,0.748 h 4.047 c 2.049,0 3.617,-0.536 4.695,-1.616 1.082,-1.079 1.621,-2.473 1.621,-4.181 0,-1.674 -0.533,-3.059 -1.608,-4.152 -1.064,-1.088 -2.583,-1.638 -4.55,-1.638 h -4.205 z" /></g><g
           transform="translate(460.376,11.7364)"
           id="g124"><path
             id="path126"
             style="fill:#040606;fill-opacity:1;fill-rule:nonzero;stroke:none"
             d="m 0,0 v -0.748 h -5.427 v -4.633 h 5.282 v -0.757 h -5.282 v -4.699 h 5.559 v -0.75 h -6.455 l 0,11.587 z" /></g><g
           transform="translate(475.7891,11.1563)"
           id="g128"><path
             id="path130"
             style="fill:#040606;fill-opacity:1;fill-rule:nonzero;stroke:none"
             d="m 0,0 v -0.988 c -1.005,0.59 -1.871,0.886 -2.595,0.886 -0.697,0 -1.279,-0.211 -1.746,-0.631 -0.467,-0.424 -0.7,-0.952 -0.7,-1.573 0,-0.45 0.138,-0.851 0.409,-1.209 0.279,-0.359 0.858,-0.709 1.738,-1.037 0.878,-0.33 1.519,-0.607 1.924,-0.83 0.405,-0.222 0.744,-0.542 1.028,-0.962 0.283,-0.422 0.425,-0.966 0.425,-1.635 0,-0.892 -0.329,-1.643 -0.978,-2.252 -0.657,-0.621 -1.453,-0.922 -2.389,-0.922 -0.965,0 -1.953,0.335 -2.97,1.01 v 1.051 c 1.125,-0.821 2.092,-1.231 2.917,-1.231 0.685,0 1.266,0.219 1.738,0.667 0.473,0.442 0.709,0.99 0.709,1.638 0,0.493 -0.147,0.932 -0.439,1.331 -0.293,0.394 -0.886,0.763 -1.782,1.105 -0.893,0.347 -1.538,0.622 -1.921,0.834 -0.383,0.208 -0.709,0.51 -0.975,0.896 -0.27,0.392 -0.406,0.893 -0.406,1.507 0,0.849 0.326,1.574 0.98,2.173 0.655,0.599 1.441,0.902 2.354,0.902 C -1.778,0.73 -0.883,0.487 0,0" /></g><g
           transform="translate(505.9346,10.8985)"
           id="g132"><path
             id="path134"
             style="fill:#040606;fill-opacity:1;fill-rule:nonzero;stroke:none"
             d="m 0,0 v -1.01 c -1.37,0.78 -2.74,1.166 -4.104,1.166 -1.469,0 -2.685,-0.484 -3.658,-1.459 -0.977,-0.973 -1.462,-2.192 -1.462,-3.656 0,-1.464 0.483,-2.682 1.446,-3.654 0.959,-0.969 2.267,-1.452 3.922,-1.452 1.192,0 2.252,0.237 3.173,0.71 v 3.128 h -2.448 v 0.745 h 3.358 v -4.435 c -1.372,-0.655 -2.742,-0.981 -4.117,-0.981 -1.797,0 -3.296,0.574 -4.502,1.711 -1.199,1.139 -1.802,2.558 -1.802,4.262 0,1.693 0.59,3.101 1.769,4.226 1.185,1.122 2.662,1.687 4.45,1.687 C -2.757,0.988 -1.432,0.658 0,0" /></g><g
           transform="translate(525.6729,11.7364)"
           id="g136"><path
             id="path138"
             style="fill:#040606;fill-opacity:1;fill-rule:nonzero;stroke:none"
             d="M 0,0 V -11.587 H -0.738 L -9.545,-1.46 v -10.127 h -0.896 V 0 h 0.756 l 8.786,-10.127 0,10.127 z" /></g><path
           id="path140"
           style="fill:#040606;fill-opacity:1;fill-rule:nonzero;stroke:none"
           d="m 486.798,0.135 h -0.895 v 11.62 h 0.895 z" /><path
           id="path142"
           style="fill:#040606;fill-opacity:1;fill-rule:nonzero;stroke:none"
           d="m 335.566,0.788 h -0.896 v 11.62 h 0.896 z" /><path
           id="path144"
           style="fill:#040606;fill-opacity:1;fill-rule:nonzero;stroke:none"
           d="m 74.619,0.116 h -0.897 v 11.62 h 0.897 z" /></g></g></g></svg>