<svg width="303" height="62" viewBox="0 0 303 62" fill="none" xmlns="http://www.w3.org/2000/svg">
<path d="M22.9197 7.59766C21.8779 7.59766 21.1668 7.64705 19.9307 7.78698V17.6525C21.0676 17.7019 21.5885 17.7472 22.3492 17.7472C26.6156 17.7472 28.7489 15.9074 28.7489 12.5531C28.7489 9.77079 26.9009 7.59766 22.9197 7.59766ZM22.9197 24.6863C21.7828 24.6863 21.0221 24.637 19.9307 24.5917V34.9305H11.8691V0.662583C15.4245 0.283932 18.6491 0.0946045 21.543 0.0946045C31.5932 0.0946045 36.9965 5.42865 36.9965 12.4131C37.0006 19.5416 32.1141 24.6863 22.9197 24.6863Z" fill="#010101"/>
<path d="M56.2039 14.2076L59.6187 22.5173H52.7436L56.2039 14.2076ZM55.7285 0.0493088L39.3696 34.9305H47.5718L50.1804 28.6498H62.1777L64.7864 34.9305H73.1787L56.8199 0.0493088H55.7285Z" fill="#010101"/>
<path d="M93.1836 7.59766C92.1418 7.59766 91.4308 7.64705 90.1988 7.78698V17.6525C91.3357 17.7019 91.8566 17.7472 92.6173 17.7472C96.8837 17.7472 99.0169 15.9074 99.0169 12.5531C99.0169 9.77079 97.1648 7.59766 93.1836 7.59766ZM93.1836 24.6863C92.0468 24.6863 91.2861 24.637 90.1988 24.5917V34.9305H82.1372V0.662583C85.6926 0.283932 88.9172 0.0946045 91.8111 0.0946045C101.861 0.0946045 107.269 5.42865 107.269 12.4131C107.265 19.5416 102.382 24.6863 93.1836 24.6863Z" fill="#010101"/>
<path d="M117.455 0.329224V34.9305H139.461V27.6127H125.521V20.8628H138.229V13.8783H125.521V7.69234H139.461V0.329224H117.455Z" fill="#010101"/>
<path d="M163.448 7.26837C162.216 7.26837 161.455 7.31776 160.318 7.50708V17.0392C161.36 17.1339 161.931 17.1833 162.877 17.1833C166.718 17.1833 169.186 15.3435 169.186 11.8492C169.19 8.96818 166.912 7.26837 163.448 7.26837ZM170.612 34.9305L164.684 23.6491C164.208 23.6985 163.783 23.6985 163.307 23.6985C162.125 23.6985 161.459 23.6491 160.322 23.6039V34.9305H152.261V0.65844C155.2 0.329179 158.425 0.0904617 162.505 0.0904617C173.316 0.0904617 177.582 5.23517 177.582 11.5611C177.582 15.6687 175.354 19.3482 171.609 21.5666L179.765 34.9264L170.612 34.9305Z" fill="#010101"/>
<path d="M207.497 22.9907C207.497 30.5884 204.227 35.4985 195.028 35.4985C191.328 35.4985 188.534 34.7412 185.545 33.0455L188.058 26.3409C189.956 27.5221 192.515 28.1806 194.793 28.1806C198.063 28.1806 199.44 26.1516 199.44 22.2786V0.329216H207.501V22.9907H207.497Z" fill="#010101"/>
<path d="M229.735 14.2076L233.149 22.5173H226.274L229.735 14.2076ZM229.259 0.0493088L212.9 34.9305H221.103L223.711 28.6498H235.708L238.317 34.9305H246.709L230.351 0.0493088H229.259Z" fill="#010101"/>
<path d="M288.386 0L273.023 19.7804L257.276 0L256.189 0.0946657L254.573 34.9306H262.357L262.688 17.9365L272.407 30.0698H273.259L282.883 17.9365L283.313 34.9306H291.135L289.477 0.0946657L288.386 0Z" fill="#010101"/>
<path d="M8.50394 57.913C8.50394 56.2132 7.45387 54.8179 5.20489 54.4146C7.12727 53.8919 8.15667 52.7518 8.15667 51.0479C8.15667 49.1341 6.58156 47.4507 3.18329 47.4507C2.03814 47.4507 1.05007 47.5454 0 47.6812V61.6625C1.05007 61.7777 2.17456 61.8929 3.31972 61.8929C6.73866 61.8971 8.50394 59.9832 8.50394 57.913ZM7.04872 51.1672C7.04872 52.7518 5.74647 54.0318 2.85256 54.0318C2.25311 54.0318 1.6702 54.0318 1.08728 53.9948V48.562C1.76528 48.4467 2.50529 48.3891 3.26184 48.3891C5.84569 48.3809 7.04872 49.5415 7.04872 51.1672ZM7.37945 57.8595C7.37945 59.6005 6.01932 60.9504 3.43548 60.9504C2.63759 60.9504 1.78595 60.8722 1.08728 60.7776V54.9373C1.68673 54.9003 2.42674 54.9003 2.93111 54.9003C5.90356 54.8961 7.37945 56.135 7.37945 57.8595ZM25.0116 56.6207V47.5906H23.9036V56.6001C23.9036 59.4605 22.2128 60.971 19.6703 60.971C17.1278 60.971 15.4741 59.5017 15.4741 56.6001V47.5906H14.3868V56.6207C14.3868 60.0409 16.3671 61.9547 19.6703 61.9547C22.8949 61.9547 25.0116 59.9462 25.0116 56.6207ZM38.7328 58.1106C38.7328 56.0815 37.4306 55.1307 34.9832 54.0318C33.2551 53.2375 32.0479 52.5049 32.0479 50.9779C32.0479 49.5086 33.2344 48.3521 35.1361 48.3521C36.2027 48.3521 37.1949 48.7348 37.9143 49.2411L38.4393 48.3315C37.6042 47.7717 36.4756 47.3643 35.2353 47.3643C32.6928 47.3643 30.9606 49.0065 30.9606 51.0561C30.9606 53.0111 32.3001 54.0154 34.4953 54.9826C36.5169 55.8922 37.6208 56.6042 37.6208 58.2505C37.6208 59.8186 36.3598 61.0163 34.4747 61.0163C33.1931 61.0163 31.9322 60.5142 30.7829 59.7404L30.2578 60.687C31.4981 61.4978 32.8582 62 34.3754 62C36.7898 61.9917 38.7328 60.4277 38.7328 58.1106ZM45.7361 47.5906H44.6488V61.7613H45.7361V47.5906ZM63.3103 61.9382V47.5906H62.2231V59.2712L52.822 47.3807L52.5698 47.4384V61.7654H53.6364V49.9531L63.1119 61.9794L63.3103 61.9382ZM78.185 61.7613V60.7735H71.2314V55.0525H77.507V54.0853H71.2314V48.5537H78.185V47.5865H70.1441V61.7571H78.185V61.7613ZM91.898 58.1106C91.898 56.0815 90.5957 55.1307 88.1483 54.0318C86.4202 53.2375 85.2131 52.5049 85.2131 50.9779C85.2131 49.5086 86.3996 48.3521 88.3013 48.3521C89.3679 48.3521 90.3601 48.7348 91.0794 49.2411L91.6045 48.3315C90.7694 47.7717 89.6449 47.3643 88.4005 47.3643C85.858 47.3643 84.1258 49.0065 84.1258 51.0561C84.1258 53.0111 85.4652 54.0154 87.6605 54.9826C89.6821 55.8922 90.7859 56.6042 90.7859 58.2505C90.7859 59.8186 89.525 61.0163 87.6398 61.0163C86.3582 61.0163 85.0973 60.5142 83.948 59.7404L83.423 60.687C84.6632 61.4978 86.0234 62 87.5406 62C89.9549 61.9917 91.898 60.4277 91.898 58.1106ZM105.193 58.1106C105.193 56.0815 103.891 55.1307 101.444 54.0318C99.7157 53.2375 98.5126 52.5049 98.5126 50.9779C98.5126 49.5086 99.695 48.3521 101.601 48.3521C102.667 48.3521 103.66 48.7348 104.379 49.2411L104.904 48.3315C104.069 47.7717 102.94 47.3643 101.7 47.3643C99.1575 47.3643 97.4253 49.0065 97.4253 51.0561C97.4253 53.0111 98.7648 54.0154 100.96 54.9826C102.982 55.8922 104.085 56.6042 104.085 58.2505C104.085 59.8186 102.825 61.0163 100.939 61.0163C99.6578 61.0163 98.3969 60.5142 97.2517 59.7404L96.7267 60.687C97.971 61.4978 99.3312 62 100.844 62C103.25 61.9917 105.193 60.4277 105.193 58.1106ZM128.245 47.7841L128.146 47.5906H118.361V48.5578H126.517L117.873 61.5678L117.951 61.7613H128.146V60.7735H119.584L128.245 47.7841ZM144.526 56.6207V47.5906H143.422V56.6001C143.422 59.4605 141.735 60.971 139.193 60.971C136.65 60.971 134.996 59.5017 134.996 56.6001V47.5906H133.909V56.6207C133.909 60.0409 135.889 61.9547 139.193 61.9547C142.413 61.9547 144.526 59.9462 144.526 56.6207ZM166.569 61.7613V60.7735H159.619V47.5865H158.532V61.7571H166.569V61.7613ZM178.413 45.0759C178.413 44.6314 178.041 44.2445 177.595 44.2445C177.128 44.2445 176.76 44.6355 176.76 45.0759C176.76 45.5204 177.132 45.8867 177.595 45.8867C178.041 45.8867 178.413 45.5204 178.413 45.0759ZM175.089 45.0759C175.089 44.6314 174.722 44.2445 174.275 44.2445C173.829 44.2445 173.461 44.6355 173.461 45.0759C173.461 45.5204 173.829 45.8867 174.275 45.8867C174.722 45.8867 175.089 45.5204 175.089 45.0759ZM179.943 61.7613V60.7735H172.989V55.0525H179.261V54.0853H172.989V48.5537H179.943V47.5865H171.902V61.7571H179.943V61.7613ZM195.971 48.5578V47.5906H185.214V48.5578H190.051V61.7613H191.159V48.5578H195.971ZM211.218 47.7841L211.119 47.5906H201.333V48.5578H209.49L200.849 61.5719L200.928 61.7654H211.123V60.7776H202.557L211.218 47.7841ZM224.976 61.7613V60.7735H218.023V55.0525H224.294V54.0853H218.023V48.5537H224.976V47.5865H216.935V61.7571H224.976V61.7613ZM239.301 57.913C239.301 56.2132 238.251 54.8179 236.002 54.4146C237.924 53.8919 238.954 52.7518 238.954 51.0479C238.954 49.1341 237.383 47.4507 233.98 47.4507C232.835 47.4507 231.843 47.5454 230.797 47.6812V61.6625C231.847 61.7777 232.972 61.8929 234.117 61.8929C237.532 61.8971 239.301 59.9832 239.301 57.913ZM237.842 51.1672C237.842 52.7518 236.539 54.0318 233.646 54.0318C233.046 54.0318 232.463 54.0318 231.88 53.9948V48.562C232.558 48.4467 233.298 48.3891 234.055 48.3891C236.639 48.3809 237.842 49.5415 237.842 51.1672ZM238.172 57.8595C238.172 59.6005 236.812 60.9504 234.228 60.9504C233.435 60.9504 232.579 60.8722 231.88 60.7776V54.9373C232.48 54.9003 233.22 54.9003 233.724 54.9003C236.697 54.8961 238.172 56.135 238.172 57.8595ZM255.805 56.6207V47.5906H254.697V56.6001C254.697 59.4605 253.01 60.971 250.463 60.971C247.917 60.971 246.271 59.5017 246.271 56.6001V47.5906H245.184V56.6207C245.184 60.0409 247.164 61.9547 250.467 61.9547C253.688 61.9547 255.805 59.9462 255.805 56.6207ZM270.576 61.7613V60.7735H263.622V55.0525H269.894V54.0853H263.622V48.5537H270.576V47.5865H262.535V61.7571H270.576V61.7613ZM285.674 61.7613L281.54 55.7687C283.656 55.1513 284.843 53.6202 284.843 51.6899C284.843 49.2123 282.958 47.4919 279.444 47.4919C278.336 47.4919 277.443 47.5865 276.393 47.7223V61.7613H277.501V55.9992C277.968 56.0362 278.724 56.0774 279.229 56.0774C279.675 56.0774 280.08 56.0568 280.469 55.9992L284.355 61.7613H285.674ZM283.673 51.7476C283.673 53.8178 282.139 55.1513 279.282 55.1513C278.699 55.1513 277.98 55.0937 277.496 55.0361V48.636C278.174 48.5208 278.836 48.4632 279.555 48.4632C282.255 48.4591 283.673 49.8502 283.673 51.7476ZM297.853 55.0155V56.0197H301.913V59.7527C300.788 60.543 299.445 60.9916 297.874 60.9916C294.397 60.9916 291.486 58.5139 291.486 54.6862C291.486 50.9573 294.186 48.3274 297.7 48.3274C299.507 48.3479 301.04 48.9859 302.38 49.9531L302.963 49.1011C301.487 48.0557 299.99 47.3602 297.7 47.3602C293.971 47.3602 290.3 50.1424 290.3 54.6862C290.3 59.2712 293.971 61.9547 297.836 61.9547C299.937 61.9547 301.607 61.3167 303 60.2137V55.0155H297.853Z" fill="#010101"/>
</svg>
